<svg width="36" height="27" viewBox="0 0 36 27" fill="none" xmlns="http://www.w3.org/2000/svg">
<path d="M35.33 6.8746C35.33 3.59232 32.5002 0.158279 32.5002 1.18823C32.5002 2.21819 33.0237 15.8969 33.0237 15.8969L32.5002 24.8418C32.5002 25.4519 32.9951 25.9464 33.6055 25.9464C34.216 25.9464 34.7108 25.4519 34.7108 24.8418L34.4185 15.8455C34.4185 15.8455 35.33 10.1569 35.33 6.8746Z" stroke="#FCC436" stroke-width="0.820339" stroke-miterlimit="10"/>
<mask id="path-2-inside-1_15_784" fill="white">
<path d="M35.33 6.8746C35.33 3.59232 32.5002 0.158279 32.5002 1.18823C32.5002 2.21819 33.0237 15.8969 33.0237 15.8969L32.5002 24.8418C32.5002 25.4519 32.9951 25.9464 33.6055 25.9464C34.216 25.9464 34.7108 25.4519 34.7108 24.8418L34.4185 15.8455C34.4185 15.8455 35.33 10.1569 35.33 6.8746Z"/>
</mask>
<path d="M33.0237 15.8969L37.1183 16.1365L37.1299 15.9384L37.1223 15.74L33.0237 15.8969ZM32.5002 24.8418L28.4056 24.6022L28.3986 24.7219V24.8418H32.5002ZM34.7108 24.8418H38.8125V24.7752L38.8103 24.7086L34.7108 24.8418ZM34.4185 15.8455L30.3685 15.1966L30.3062 15.5853L30.319 15.9787L34.4185 15.8455ZM39.4317 6.8746C39.4317 4.18613 38.3295 1.74902 37.4003 0.251655C36.9444 -0.483062 36.3337 -1.31206 35.6185 -1.92779C35.4241 -2.09518 35.1342 -2.32344 34.7622 -2.53134C34.4554 -2.70276 33.7194 -3.07581 32.7141 -3.09842C31.4381 -3.12712 30.021 -2.56153 29.1351 -1.25263C28.4456 -0.233695 28.3986 0.78162 28.3986 1.18823H36.6019C36.6019 1.4661 36.577 2.38755 35.9289 3.34523C35.0845 4.59289 33.7282 5.12985 32.5296 5.10289C31.6017 5.08202 30.9596 4.74108 30.7606 4.62988C30.4963 4.4822 30.3281 4.34228 30.2663 4.28908C30.0817 4.13013 30.1784 4.17167 30.4299 4.57701C30.9156 5.35974 31.2283 6.2808 31.2283 6.8746H39.4317ZM28.3986 1.18823C28.3986 1.80309 28.5349 5.60594 28.663 9.07994C28.7285 10.8558 28.794 12.5992 28.8431 13.8984C28.8677 14.548 28.8881 15.0868 28.9024 15.4631C28.9096 15.6513 28.9152 15.7989 28.9191 15.8994C28.921 15.9497 28.9225 15.9883 28.9234 16.0142C28.9239 16.0272 28.9243 16.0371 28.9246 16.0437C28.9247 16.047 28.9248 16.0495 28.9249 16.0512C28.9249 16.052 28.9249 16.0526 28.9249 16.0531C28.9249 16.0533 28.9249 16.0534 28.925 16.0535C28.925 16.0536 28.925 16.0537 33.0237 15.8969C37.1223 15.74 37.1223 15.74 37.1223 15.7399C37.1223 15.7398 37.1223 15.7396 37.1223 15.7394C37.1223 15.739 37.1223 15.7384 37.1223 15.7376C37.1222 15.736 37.1221 15.7335 37.122 15.7302C37.1217 15.7237 37.1213 15.7139 37.1208 15.701C37.1199 15.6751 37.1184 15.6367 37.1165 15.5866C37.1127 15.4863 37.107 15.339 37.0999 15.1511C37.0856 14.7754 37.0652 14.2374 37.0406 13.5886C36.9916 12.2909 36.9262 10.5502 36.8609 8.77763C36.7955 7.00446 36.7302 5.2021 36.6813 3.78003C36.6568 3.06851 36.6366 2.45614 36.6225 1.9918C36.6155 1.75927 36.6101 1.56837 36.6066 1.42287C36.6048 1.3501 36.6036 1.29236 36.6028 1.24863C36.602 1.20093 36.6019 1.18446 36.6019 1.18823H28.3986ZM28.929 15.6573L28.4056 24.6022L36.5949 25.0814L37.1183 16.1365L28.929 15.6573ZM28.3986 24.8418C28.3986 27.7197 30.7323 30.0481 33.6055 30.0481V21.8447C35.2579 21.8447 36.6019 23.1841 36.6019 24.8418H28.3986ZM33.6055 30.0481C36.4788 30.0481 38.8125 27.7197 38.8125 24.8418H30.6091C30.6091 23.1841 31.9532 21.8447 33.6055 21.8447V30.0481ZM38.8103 24.7086L38.518 15.7123L30.319 15.9787L30.6113 24.975L38.8103 24.7086ZM34.4185 15.8455C38.4685 16.4944 38.4686 16.4942 38.4686 16.494C38.4686 16.4939 38.4687 16.4937 38.4687 16.4935C38.4688 16.493 38.4689 16.4925 38.4689 16.492C38.4691 16.4908 38.4694 16.4893 38.4697 16.4874C38.4703 16.4837 38.4711 16.4786 38.4721 16.4722C38.4741 16.4593 38.477 16.4411 38.4807 16.4178C38.488 16.3712 38.4985 16.3041 38.5117 16.2185C38.538 16.0474 38.5751 15.8022 38.6195 15.4986C38.7081 14.8926 38.8262 14.0491 38.9446 13.0971C39.1741 11.2511 39.4317 8.79036 39.4317 6.8746H31.2283C31.2283 8.24112 31.0301 10.2658 30.8039 12.0848C30.6944 12.9652 30.5847 13.749 30.5024 14.3121C30.4613 14.5932 30.4272 14.818 30.4037 14.9708C30.3919 15.0472 30.3828 15.1055 30.3768 15.1438C30.3738 15.163 30.3716 15.1771 30.3702 15.186C30.3695 15.1904 30.369 15.1936 30.3687 15.1953C30.3685 15.1962 30.3684 15.1968 30.3684 15.197C30.3684 15.1971 30.3684 15.1971 30.3684 15.197C30.3684 15.197 30.3684 15.1969 30.3684 15.1969C30.3685 15.1967 30.3685 15.1966 34.4185 15.8455Z" fill="#FCC436" mask="url(#path-2-inside-1_15_784)"/>
<path d="M5.1012 1.5968C5.1012 1.5968 5.16282 3.8932 5.16282 6.0735C5.16282 7.70876 4.66583 8.73568 3.95756 9.14696L3.97332 24.8418C3.97332 25.4519 3.47848 25.9464 2.86803 25.9464C2.25759 25.9464 1.76275 25.4519 1.76275 24.8418L2.21083 9.15022C1.49959 8.74109 1 7.71301 1 6.0735C1 3.8932 1.06162 1.5968 1.06162 1.5968" stroke="#FCC436" stroke-width="1.29858" stroke-miterlimit="10" stroke-linecap="round" stroke-linejoin="round"/>
<path d="M3.08118 1.5968V6.89039" stroke="#FCC436" stroke-width="1.29858" stroke-miterlimit="10" stroke-linecap="round" stroke-linejoin="round"/>
<path d="M18.6844 24.4431C24.776 24.4431 29.7142 19.5081 29.7142 13.4205C29.7142 7.33283 24.776 2.39783 18.6844 2.39783C12.5929 2.39783 7.65466 7.33283 7.65466 13.4205C7.65466 19.5081 12.5929 24.4431 18.6844 24.4431Z" stroke="#FCC436" stroke-width="2.46102" stroke-miterlimit="10" stroke-linecap="round" stroke-linejoin="round"/>
<path d="M18.6868 20.1533C22.395 20.1533 25.4011 17.1492 25.4011 13.4434C25.4011 9.73755 22.395 6.7334 18.6868 6.7334C14.9786 6.7334 11.9725 9.73755 11.9725 13.4434C11.9725 17.1492 14.9786 20.1533 18.6868 20.1533Z" fill="#FCC436"/>
<path d="M1 6.58447H5.18937L4.49114 9.37558L4.17053 24.7552C4.15469 25.5148 3.53441 26.1222 2.77468 26.1222V26.1222C1.99221 26.1222 1.36252 25.4793 1.37883 24.697L1.69823 9.37558L1 6.58447Z" fill="#FCC436"/>
</svg>
